<svg width="64" height="64" viewBox="0 0 64 64" fill="none" xmlns="http://www.w3.org/2000/svg">
  <rect width="64" height="64" rx="14" fill="#07110D"/>
  <path d="M14.5 43.5C10.9 38.2 10 31.4 12.2 25.4C15.4 16.7 24.2 11.1 33.4 12.1C43.1 13.1 50.7 20.8 51.6 30.4C52.5 40.8 45 50 34.8 51.5C29.9 52.2 25 51.2 21 48.6L11.4 51.5L14.5 43.5Z" fill="url(#paint0_linear)"/>
  <path d="M24 31.8C24 28.7 25.8 26.5 28.5 25.7C31.1 25 33.3 26 35.2 28.5L40.2 35.2H34.9L31.1 30.2C30.4 29.4 29.7 29.2 29 29.4C28.2 29.7 27.8 30.4 27.8 31.5V38H24V31.8Z" fill="#04130C"/>
  <path d="M38.1 25.7H42V38H38.1V25.7Z" fill="#04130C"/>
  <path d="M24 40.5H42V44H24V40.5Z" fill="#04130C" opacity="0.85"/>
  <defs>
    <linearGradient id="paint0_linear" x1="14" y1="13" x2="50" y2="51" gradientUnits="userSpaceOnUse">
      <stop stop-color="#84F56F"/>
      <stop offset="0.5" stop-color="#19D46F"/>
      <stop offset="1" stop-color="#008B4C"/>
    </linearGradient>
  </defs>
</svg>
