<svg width="320" height="96" viewBox="0 0 320 96" fill="none" xmlns="http://www.w3.org/2000/svg">
  <path d="M25.7 65.1C20.2 57.1 18.9 46.7 22.2 37.6C27.1 24.4 40.4 15.9 54.4 17.3C69.1 18.9 80.6 30.5 81.9 45.1C83.3 60.9 71.8 74.8 56.4 77C49 78.1 41.6 76.5 35.5 72.7L20.9 77L25.7 65.1Z" fill="url(#mark)"/>
  <path d="M40 47.6C40 42.9 42.7 39.5 46.8 38.3C50.8 37.2 54.1 38.8 57 42.5L64.6 52.7H56.6L50.8 45.1C49.8 43.8 48.7 43.5 47.6 43.9C46.4 44.3 45.8 45.4 45.8 47.1V57H40V47.6Z" fill="#04130C"/>
  <path d="M61.5 38.3H67.4V57H61.5V38.3Z" fill="#04130C"/>
  <path d="M40 60.7H67.4V66H40V60.7Z" fill="#04130C" opacity="0.85"/>
  <path d="M111 30.4H121.4V45.9L136.4 30.4H149.3L131.8 48L150.4 73H137.7L124.5 55.1L121.4 58.3V73H111V30.4Z" fill="#06120D"/>
  <path d="M157.3 30.4H168.9L178.3 48L187.8 30.4H199.1L183.4 57.7V73H173V57.8L157.3 30.4Z" fill="#06120D"/>
  <path d="M210.2 30.4H230.8C235.7 30.4 239.5 31.6 242.2 34C244.9 36.4 246.3 39.8 246.3 44.2C246.3 47 245.6 49.5 244.1 51.5C242.7 53.5 240.6 55.1 237.9 56.1L247.6 73H236.2L227.8 58H220.6V73H210.2V30.4ZM229.8 49.8C233.8 49.8 235.8 48.1 235.8 44.6C235.8 41.2 233.8 39.5 229.8 39.5H220.6V49.8H229.8Z" fill="#06120D"/>
  <path d="M260.2 30.4H270L288.8 55.5V30.4H299V73H289.2L270.4 47.9V73H260.2V30.4Z" fill="#06120D"/>
  <defs>
    <linearGradient id="mark" x1="23" y1="18" x2="78" y2="76" gradientUnits="userSpaceOnUse">
      <stop stop-color="#84F56F"/>
      <stop offset="0.5" stop-color="#19D46F"/>
      <stop offset="1" stop-color="#008B4C"/>
    </linearGradient>
  </defs>
</svg>
